<svg width="16" height="27" viewBox="0 0 16 27" fill="none" xmlns="http://www.w3.org/2000/svg">
<path fill-rule="evenodd" clip-rule="evenodd" d="M5.94763 2.12911C7.32948 0.765863 9.20366 0 11.1579 0H14.9474C15.5287 0 16 0.464935 16 1.03846V6.02308C16 6.5966 15.5287 7.06154 14.9474 7.06154H11.1579C11.1021 7.06154 11.0485 7.08342 11.009 7.12237C10.9695 7.16132 10.9474 7.21415 10.9474 7.26923V9.96923H14.9474C15.2715 9.96923 15.5776 10.1166 15.777 10.3686C15.9765 10.6207 16.0472 10.9493 15.9686 11.2596L14.7054 16.2442C14.5883 16.7065 14.1672 17.0308 13.6842 17.0308H10.9474V25.9615C10.9474 26.5351 10.4761 27 9.89473 27H4.8421C4.26075 27 3.78947 26.5351 3.78947 25.9615V17.0308H1.05263C0.471279 17.0308 0 16.5658 0 15.9923V11.0077C0 10.4342 0.471279 9.96923 1.05263 9.96923H3.78947V7.26923C3.78947 5.34131 4.56578 3.49235 5.94763 2.12911ZM11.1579 2.07692C9.76201 2.07692 8.42331 2.62397 7.43628 3.59771C6.44924 4.57146 5.89473 5.89215 5.89473 7.26923V11.0077C5.89473 11.5812 5.42345 12.0462 4.8421 12.0462H2.10526V14.9538H4.8421C5.42345 14.9538 5.89473 15.4188 5.89473 15.9923V24.9231H8.8421V15.9923C8.8421 15.4188 9.31338 14.9538 9.89473 14.9538H12.8623L13.5992 12.0462H9.89473C9.31338 12.0462 8.8421 11.5812 8.8421 11.0077V7.26923C8.8421 6.66331 9.08608 6.08221 9.52038 5.65376C9.95467 5.22532 10.5437 4.98462 11.1579 4.98462H13.8947V2.07692H11.1579Z" fill="black"/>
</svg>
