<svg width="30" height="30" viewBox="0 0 30 30" fill="none" xmlns="http://www.w3.org/2000/svg">
<path d="M21 7.50001C21 6.67158 21.6716 6.00001 22.5 6.00001C23.3285 6.00001 24 6.67158 24 7.50001C24 8.32843 23.3285 9.00001 22.5 9.00001C21.6716 9.00001 21 8.32843 21 7.50001Z" fill="black"/>
<path fill-rule="evenodd" clip-rule="evenodd" d="M15 7.87501C11.065 7.87501 7.87503 11.065 7.87503 15C7.87503 18.935 11.065 22.125 15 22.125C18.9351 22.125 22.125 18.935 22.125 15C22.125 11.065 18.9351 7.87501 15 7.87501ZM10.125 15C10.125 12.3076 12.3076 10.125 15 10.125C17.6924 10.125 19.875 12.3076 19.875 15C19.875 17.6924 17.6924 19.875 15 19.875C12.3076 19.875 10.125 17.6924 10.125 15Z" fill="black"/>
<path fill-rule="evenodd" clip-rule="evenodd" d="M22.8874 1.24953C17.6876 0.668369 12.3125 0.668369 7.11268 1.24953C4.0946 1.58685 1.6581 3.96436 1.30327 6.99815C0.681462 12.3146 0.681462 17.6854 1.30327 23.0019C1.6581 26.0356 4.0946 28.4132 7.11269 28.7505C12.3125 29.3316 17.6875 29.3316 22.8874 28.7505C25.9055 28.4132 28.342 26.0356 28.6968 23.0019C29.3186 17.6854 29.3186 12.3146 28.6968 6.99815C28.342 3.96436 25.9055 1.58685 22.8874 1.24953ZM7.3626 3.48561C12.3964 2.92301 17.6037 2.92301 22.6375 3.48561C24.6327 3.7086 26.2309 5.28302 26.4621 7.25953C27.0636 12.4023 27.0636 17.5977 26.4621 22.7405C26.2309 24.717 24.6327 26.2914 22.6375 26.5144C17.6037 27.077 12.3964 27.077 7.3626 26.5144C5.36744 26.2914 3.76921 24.717 3.53804 22.7405C2.93654 17.5977 2.93654 12.4023 3.53804 7.25953C3.76921 5.28302 5.36744 3.7086 7.3626 3.48561Z" fill="black"/>
</svg>
