<svg width="34" height="28" viewBox="0 0 34 28" fill="none" xmlns="http://www.w3.org/2000/svg">
<path fill-rule="evenodd" clip-rule="evenodd" d="M21.7781 0.127561C22.5821 -0.00966345 23.4824 -0.0554815 24.3297 0.0873532C25.8428 0.342449 27.2405 1.04325 28.3454 2.09394C29.0676 2.11021 29.7773 1.96843 30.4054 1.76632C30.9369 1.59526 31.3859 1.38872 31.7005 1.22541C31.8569 1.1442 31.9778 1.07493 32.0563 1.02804C32.0956 1.00463 32.1241 0.986909 32.141 0.976208L32.156 0.966656C32.6254 0.655075 33.2504 0.715718 33.6503 1.11204C34.0503 1.50846 34.1147 2.13078 33.8044 2.60021C33.4759 3.09706 33.0199 3.98277 32.509 4.97514C32.4287 5.13118 32.347 5.28985 32.2642 5.45007C31.9712 6.0173 31.6708 6.5906 31.3907 7.08246C31.2149 7.39129 31.0268 7.70484 30.8372 7.97578V8.40721C30.8493 9.99188 30.6668 11.5683 30.2967 13.1019C30.0638 14.0668 29.7565 15.0148 29.3766 15.9373C28.3923 18.3272 26.94 20.4978 25.1044 22.3222C23.2689 24.1466 21.0869 25.5882 18.6859 26.5629C16.2871 27.5367 13.7178 28.0249 11.1277 27.999C7.37298 28.0023 3.69725 26.9243 0.54282 24.8948C0.0782063 24.5959 -0.11741 24.0167 0.0713073 23.4986C0.260025 22.9806 0.782979 22.6613 1.33184 22.729C1.80682 22.7876 2.28505 22.8162 2.76366 22.8146C4.48334 22.8098 6.17027 22.4312 7.71032 21.7179C7.22081 21.4959 6.75345 21.2221 6.31674 20.8994C5.0331 19.9509 4.07809 18.6273 3.58459 17.1127C3.45635 16.7192 3.54402 16.2874 3.81572 15.9745C3.82059 15.9689 3.8255 15.9634 3.83046 15.9579C3.54023 15.7 3.26866 15.4192 3.01865 15.1172C1.89378 13.7585 1.27439 12.0544 1.26525 10.2931L1.26521 10.287L1.26523 10.2082C1.26523 9.78923 1.48781 9.40159 1.85027 9.1893C1.94215 9.13548 2.03954 9.09497 2.13972 9.0678C1.60469 8.00401 1.32645 6.82933 1.32849 5.63762C1.32785 4.28752 1.68176 2.96074 2.35506 1.78913C2.54943 1.4509 2.89864 1.22992 3.2885 1.19844C3.67836 1.16696 4.05872 1.32904 4.3052 1.63167C5.82738 3.50059 7.72708 5.02952 9.88091 6.11914C10.9881 6.67927 12.1497 7.11687 13.3449 7.42641C14.015 7.59995 14.6957 7.73324 15.3832 7.82531C15.3529 6.6856 15.5788 5.5465 16.0528 4.49397C16.7481 2.94996 17.938 1.67958 19.436 0.882074C20.0703 0.544334 20.9124 0.275326 21.7781 0.127561ZM3.94296 12.0209C4.14798 12.5959 4.45298 13.1354 4.84841 13.613C5.62538 14.5514 6.70381 15.1937 7.90126 15.4311C8.43464 15.5368 8.82752 15.9904 8.85444 16.5317C8.88136 17.0729 8.53543 17.5631 8.01516 17.7208C7.58424 17.8515 7.14275 17.9426 6.69624 17.9931C6.9913 18.3721 7.33838 18.7116 7.72963 19.0007C8.61708 19.6565 9.68759 20.0202 10.7922 20.0414C11.2934 20.051 11.7344 20.3736 11.8938 20.8471C12.0533 21.3207 11.8967 21.843 11.5028 22.1519C9.84366 23.4527 7.92511 24.3599 5.89216 24.823C7.5771 25.3607 9.34422 25.6375 11.1316 25.6353L11.1454 25.6353C13.4227 25.6589 15.6819 25.2301 17.791 24.3739C19.9001 23.5177 21.8168 22.2513 23.4293 20.6487C25.0417 19.046 26.3175 17.1393 27.1822 15.0399C27.5159 14.2295 27.7858 13.3968 27.9904 12.5491C28.3159 11.2006 28.4761 9.81443 28.4652 8.42101L28.4651 8.41176V7.57659C28.4651 7.29002 28.5696 7.01322 28.7591 6.79769C28.8687 6.67314 29.0603 6.38546 29.3276 5.91603C29.5816 5.46988 29.8628 4.93425 30.1552 4.36825C30.1729 4.33402 30.1906 4.29961 30.2084 4.26504C29.45 4.42916 28.5904 4.51518 27.6893 4.41814C27.4039 4.3874 27.1394 4.25458 26.9448 4.04431C26.1496 3.18496 25.0906 2.61294 23.934 2.41794C23.4208 2.33142 22.8003 2.35123 22.1786 2.45734C21.5032 2.57262 20.9154 2.77435 20.5538 2.96687C19.5191 3.51773 18.6972 4.3952 18.2169 5.46169C17.7367 6.52817 17.6252 7.72333 17.9001 8.85974C17.9877 9.22203 17.8987 9.60429 17.6599 9.89113C17.4212 10.178 17.0606 10.3358 16.6871 10.317C15.3533 10.2498 14.0337 10.047 12.7482 9.71411C11.3884 9.36193 10.0668 8.86406 8.80709 8.22678C6.95247 7.28853 5.26346 6.06398 3.80093 4.60212C3.73421 4.94189 3.70034 5.28861 3.70057 5.63757L3.70057 5.64059C3.69891 6.50841 3.91264 7.36318 4.32271 8.12878C4.73278 8.89439 5.32647 9.54707 6.05092 10.0287C6.49058 10.321 6.68308 10.868 6.52296 11.3699C6.36284 11.8718 5.88874 12.2076 5.3604 12.1933C4.88188 12.1803 4.40736 12.1223 3.94296 12.0209Z" fill="black"/>
</svg>
